<?xml version="1.0" encoding="UTF-8" standalone="no"?>
<!DOCTYPE svg PUBLIC "-//W3C//DTD SVG 1.0//EN" "http://www.w3.org/TR/2001/PR-SVG-20010719/DTD/svg10.dtd">
<svg width="29cm" height="24cm" viewBox="279 19 562 462" xmlns="http://www.w3.org/2000/svg" xmlns:xlink="http://www.w3.org/1999/xlink">
  <g id="Nouveau calque 2">
    <g>
      <rect style="fill: #ffbd00; fill-opacity: 1; stroke-opacity: 1; stroke-width: 2; stroke: #000000" x="280" y="20" width="560" height="460" rx="0" ry="0"/>
      <text font-size="12.8" style="fill: #000000; fill-opacity: 1; stroke: none;text-anchor:middle;font-family:sans-serif;font-style:normal;font-weight:normal" x="560" y="253.9">
        <tspan x="560" y="253.9"></tspan>
      </text>
    </g>
  </g>
  <g id="Arrière-plan">
    <g>
      <rect style="fill: #ffffff; fill-opacity: 1; stroke-opacity: 1; stroke-width: 2; stroke: #000000" x="300" y="40" width="100" height="100" rx="0" ry="0"/>
      <text font-size="12.8" style="fill: #000000; fill-opacity: 1; stroke: none;text-anchor:middle;font-family:sans-serif;font-style:normal;font-weight:normal" x="350" y="93.9">
        <tspan x="350" y="93.9">MainGame</tspan>
      </text>
    </g>
    <g>
      <rect style="fill: #ffffff; fill-opacity: 1; stroke-opacity: 1; stroke-width: 2; stroke: #000000" x="500" y="40" width="127.15" height="100" rx="0" ry="0"/>
      <text font-size="12.8" style="fill: #000000; fill-opacity: 1; stroke: none;text-anchor:middle;font-family:sans-serif;font-style:normal;font-weight:normal" x="563.575" y="93.9">
        <tspan x="563.575" y="93.9">Game Controller</tspan>
      </text>
    </g>
    <g>
      <rect style="fill: #ffffff; fill-opacity: 1; stroke-opacity: 1; stroke-width: 2; stroke: #000000" x="460" y="200" width="204.15" height="100" rx="0" ry="0"/>
      <text font-size="12.8" style="fill: #000000; fill-opacity: 1; stroke: none;text-anchor:middle;font-family:sans-serif;font-style:normal;font-weight:normal" x="562.075" y="253.9">
        <tspan x="562.075" y="253.9">Client/Server/Solo Controller</tspan>
      </text>
    </g>
    <g>
      <ellipse style="fill: #ffffff; fill-opacity: 1; stroke-opacity: 1; stroke-width: 2; stroke: #000000" cx="770" cy="250" rx="50" ry="50"/>
      <text font-size="12.8" style="fill: #000000; fill-opacity: 1; stroke: none;text-anchor:middle;font-family:sans-serif;font-style:normal;font-weight:normal" x="770" y="245.9">
        <tspan x="770" y="245.9">Local</tspan>
        <tspan x="770" y="261.9">Input</tspan>
      </text>
    </g>
    <text font-size="12.8" style="fill: #000000; fill-opacity: 1; stroke: none;text-anchor:start;font-family:sans-serif;font-style:normal;font-weight:normal" x="350" y="90">
      <tspan x="350" y="90"></tspan>
    </text>
    <g>
      <ellipse style="fill: #ffffff; fill-opacity: 1; stroke-opacity: 1; stroke-width: 2; stroke: #000000" cx="350" cy="250" rx="50" ry="50"/>
      <text font-size="12.8" style="fill: #000000; fill-opacity: 1; stroke: none;text-anchor:middle;font-family:sans-serif;font-style:normal;font-weight:normal" x="350" y="253.9">
        <tspan x="350" y="253.9">Network</tspan>
      </text>
    </g>
    <g>
      <rect style="fill: #ffffff; fill-opacity: 1; stroke-opacity: 1; stroke-width: 2; stroke: #000000" x="500" y="360" width="120" height="100" rx="0" ry="0"/>
      <text font-size="12.8" style="fill: #000000; fill-opacity: 1; stroke: none;text-anchor:middle;font-family:sans-serif;font-style:normal;font-weight:normal" x="560" y="413.9">
        <tspan x="560" y="413.9">Game Logic</tspan>
      </text>
    </g>
    <g>
      <line style="fill: none; stroke-opacity: 1; stroke-width: 3; stroke: #000000" x1="400" y1="90" x2="489.146" y2="90"/>
      <polygon style="fill: #000000; fill-opacity: 1; stroke-opacity: 1; stroke-width: 3; stroke: #000000" fill-rule="evenodd" points="496.646,90 486.646,95 489.146,90 486.646,85 "/>
    </g>
    <g>
      <line style="fill: none; stroke-opacity: 1; stroke-width: 3; stroke: #000000" x1="561.273" y1="311.83" x2="560.802" y2="348.17"/>
      <polygon style="fill: #000000; fill-opacity: 1; stroke-opacity: 1; stroke-width: 3; stroke: #000000" fill-rule="evenodd" points="561.37,304.33 566.24,314.394 561.273,311.83 556.241,314.265 "/>
      <polygon style="fill: #000000; fill-opacity: 1; stroke-opacity: 1; stroke-width: 3; stroke: #000000" fill-rule="evenodd" points="560.705,355.67 555.835,345.606 560.802,348.17 565.834,345.735 "/>
    </g>
    <g>
      <line style="fill: none; stroke-opacity: 1; stroke-width: 3; stroke: #000000" x1="719.009" y1="250" x2="676.01" y2="250"/>
      <polygon style="fill: #000000; fill-opacity: 1; stroke-opacity: 1; stroke-width: 3; stroke: #000000" fill-rule="evenodd" points="668.51,250 678.51,245 676.01,250 678.51,255 "/>
    </g>
    <g>
      <line style="fill: none; stroke-opacity: 1; stroke-width: 3; stroke: #000000" x1="563.097" y1="140.977" x2="562.655" y2="188.17"/>
      <polygon style="fill: #000000; fill-opacity: 1; stroke-opacity: 1; stroke-width: 3; stroke: #000000" fill-rule="evenodd" points="562.584,195.669 557.678,185.623 562.655,188.17 567.678,185.717 "/>
    </g>
    <g>
      <line style="fill: none; stroke-opacity: 1; stroke-width: 3; stroke: #000000" x1="448.161" y1="250" x2="411.86" y2="250"/>
      <polygon style="fill: #000000; fill-opacity: 1; stroke-opacity: 1; stroke-width: 3; stroke: #000000" fill-rule="evenodd" points="455.661,250 445.661,255 448.161,250 445.661,245 "/>
      <polygon style="fill: #000000; fill-opacity: 1; stroke-opacity: 1; stroke-width: 3; stroke: #000000" fill-rule="evenodd" points="404.36,250 414.36,245 411.86,250 414.36,255 "/>
    </g>
  </g>
</svg>
